<svg width="512" height="512" viewBox="0 0 512 512" fill="none" xmlns="http://www.w3.org/2000/svg">
<path d="M299.145 296.663L298.931 296.698L299.069 296.932L299.145 296.663ZM185.873 396.865L186.132 396.727L185.866 396.61L185.873 396.865ZM193.311 396.631L193.353 396.838L193.57 396.689L193.311 396.631ZM221.968 202.437C221.968 202.409 221.833 202.382 221.761 202.354C221.733 202.461 221.692 202.565 221.692 202.668C221.692 202.699 221.83 202.723 221.902 202.751C221.93 202.647 221.971 202.541 221.968 202.437ZM335.902 209.297C336.209 209.404 336.354 209.245 336.257 208.907C336.226 208.8 336.075 208.734 335.981 208.648C335.906 208.755 335.833 208.865 335.761 208.972C335.805 209.086 335.833 209.272 335.902 209.297ZM374.377 251.327L374.318 251.058L374.032 251.248L374.377 251.327ZM262.216 338.528C261.912 338.594 261.871 338.78 262.116 338.977C262.174 339.021 262.333 338.963 262.416 338.904C262.468 338.87 262.471 338.742 262.495 338.656C262.402 338.607 262.299 338.507 262.216 338.528ZM287.612 237.925C287.698 237.932 287.791 237.756 287.881 237.667C287.626 237.394 287.37 237.118 287.115 236.845C287.039 236.952 286.963 237.059 286.887 237.166C286.942 237.639 287.194 237.901 287.612 237.925ZM204.917 386.655C204.804 386.697 204.666 386.766 204.607 386.869C204.455 387.152 205.028 387.332 205.459 387.111C205.532 387.073 205.614 386.866 205.594 386.838C205.518 386.742 205.394 386.69 205.29 386.624C205.166 386.631 205.035 386.617 204.917 386.655ZM220.294 196.975C220.208 196.664 219.998 196.561 219.732 196.699C219.677 196.726 219.628 196.965 219.653 196.982C219.825 197.109 220.022 197.209 220.208 197.32C220.239 197.203 220.322 197.071 220.294 196.975ZM359.507 258.725C359.683 258.759 359.901 258.549 360.101 258.445C359.973 258.221 359.873 257.966 359.707 257.783C359.48 257.534 359.249 257.576 359.121 257.852C359.069 257.962 359.073 258.104 359.049 258.231C359.2 258.407 359.335 258.694 359.507 258.725ZM271.773 338.908C272.162 338.883 272.325 338.404 272.069 337.993C271.976 337.841 271.572 337.721 271.493 337.803C271.331 337.969 271.296 338.283 271.21 338.538C271.4 338.669 271.593 338.921 271.773 338.908ZM322.409 257.614C322.481 257.348 322.613 257.082 322.609 256.817C322.606 256.599 322.44 256.385 322.347 256.172C322.274 256.434 322.143 256.699 322.15 256.962C322.154 257.179 322.316 257.396 322.409 257.614ZM188.799 402.621C188.744 402.69 188.754 402.88 188.799 402.983C188.916 403.263 189.147 403.335 189.416 403.156C189.623 403.011 189.813 402.828 189.992 402.638C190.234 402.383 190.227 402.131 189.972 401.958C189.879 401.893 189.744 401.907 189.523 401.865C189.309 402.083 189.04 402.338 188.799 402.621ZM277.379 316.735C277.503 316.493 277.645 316.258 277.748 316.007C277.796 315.886 277.814 315.699 277.765 315.589C277.658 315.348 277.496 315.137 277.358 314.913C277.227 315.147 277.075 315.372 276.975 315.62C276.93 315.737 276.982 315.903 276.992 316.045C277.12 316.276 277.248 316.507 277.379 316.735ZM265.921 175.709C265.99 175.64 266.042 175.444 266.004 175.375C265.814 175.026 265.6 174.692 265.366 174.381C265.311 174.309 265.121 174.295 265.021 174.34C264.748 174.457 264.641 174.733 264.814 175.006C265.014 175.323 265.293 175.578 265.5 175.82C265.711 175.772 265.849 175.782 265.921 175.709ZM231.659 364.22C231.697 364.265 231.907 364.182 232.004 364.106C232.67 363.572 232.79 363.202 232.539 362.364C232.432 362.005 232.207 361.998 231.921 362.205C231.466 362.537 231.238 362.982 231.252 363.589C231.379 363.799 231.497 364.034 231.659 364.22ZM293.384 317.28C293.446 317.394 293.584 317.508 293.698 317.532C294.253 317.646 294.767 317.497 295.112 317C295.374 316.628 295.319 316.155 295.057 315.8C294.905 315.593 294.633 315.496 294.412 315.351C293.687 315.413 293.042 316.61 293.384 317.28ZM289.647 327.114C289.585 327.172 289.592 327.414 289.644 327.524C289.699 327.638 289.847 327.773 289.954 327.769C291.127 327.745 292.028 327.269 292.324 325.885C292.349 325.771 292.283 325.599 292.207 325.502C292.138 325.416 292 325.395 291.762 325.285C291.093 325.861 290.361 326.475 289.647 327.114ZM212.877 223.796C212.866 225.19 213.398 226.273 214.446 227.036C214.781 227.284 215.14 227.356 215.519 227.129C215.809 226.953 215.875 226.339 215.616 225.994C214.881 225.01 214.205 223.954 213.101 223.416C213.015 223.557 212.88 223.678 212.877 223.796ZM289.909 262.189C291.483 262.558 292.421 261.461 292.045 259.698C292.004 259.505 291.666 259.208 291.531 259.246C290.441 259.556 289.827 260.423 289.485 261.558C289.633 261.789 289.744 262.148 289.909 262.189ZM422.733 281.812C423.044 281.729 423.157 281.495 423.099 281.139C422.937 280.184 422.229 279.452 421.498 279.631C421.001 279.752 420.525 280.052 420.094 280.37C419.945 280.48 419.87 280.898 419.925 281.126C419.983 281.367 420.208 281.674 420.411 281.736C420.911 281.892 421.446 281.926 421.864 281.992C422.226 281.919 422.481 281.878 422.733 281.812ZM251.076 346.388C250.058 346.664 249.137 347.185 248.395 348.038C248.309 348.138 248.216 348.314 248.24 348.421C248.267 348.527 248.45 348.679 248.54 348.662C249.678 348.438 250.834 348.262 251.942 347.899C252.359 347.761 252.663 347.182 253.025 346.792C252.363 346.129 251.693 346.216 251.076 346.388ZM407.232 249.302C407.408 249.871 407.649 250.361 408.215 250.513C408.978 250.723 409.678 250.347 410.164 249.491C410.382 249.112 410.289 248.498 409.968 248.373C409.364 248.135 408.747 247.935 408.467 247.839C407.418 247.804 406.997 248.529 407.232 249.302ZM359.4 250.368C359.573 250.302 359.725 249.871 359.711 249.626C359.701 249.46 359.38 249.202 359.19 249.195C358.396 249.153 357.586 249.108 356.809 249.246C356.499 249.302 356.137 249.774 356.019 250.144C355.919 250.461 356.13 250.903 356.233 251.444C357.379 251.065 358.403 250.758 359.4 250.368ZM181.081 405.009C182.333 404.536 183.303 403.653 184.045 402.469C184.234 402.165 184.086 401.896 183.765 401.813C182.006 401.358 180.539 402.397 180.388 404.205C180.35 404.67 180.757 405.129 181.081 405.009ZM239.653 351.095C239.487 351.205 239.37 351.605 239.401 351.843C239.432 352.05 239.718 352.389 239.863 352.371C241.709 352.164 243.575 351.988 245.09 350.587C245.28 350.415 245.414 350.142 245.518 349.887C245.556 349.797 245.397 349.501 245.376 349.507C244.486 349.773 243.599 350.06 242.844 350.304C241.602 350.177 240.584 350.477 239.653 351.095ZM302.312 168.46C302.985 169.957 304.103 170.968 305.376 171.776C305.559 171.89 305.928 171.831 306.111 171.69C306.297 171.545 306.435 171.21 306.466 170.944C306.587 169.806 306.156 168.895 305.297 168.339C304.489 167.815 303.582 167.563 302.626 167.815C302.506 167.846 302.399 167.949 302.285 168.022C302.292 168.17 302.257 168.339 302.312 168.46ZM221.999 392.666C222.088 392.618 222.178 392.356 222.137 392.276C222.026 392.062 221.805 391.704 221.695 391.731C219.356 392.3 216.989 392.77 214.764 393.795C214.567 393.884 214.44 394.212 214.329 394.454C214.191 394.764 214.716 395.154 214.44 395.192C217.617 394.875 219.835 393.864 221.999 392.666ZM402.605 232.712C402.681 232.684 402.768 232.518 402.771 232.415C402.774 232.273 402.733 232.101 402.65 231.997C402.198 231.435 401.643 230.907 400.963 230.938C398.807 231.042 396.768 230.5 394.739 229.793C394.677 229.768 394.505 229.958 394.47 230.082C394.432 230.207 394.453 230.421 394.529 230.507C396.33 232.546 398.607 233.115 401.201 233.122C401.591 233.012 402.102 232.877 402.605 232.712ZM402.429 256.713C403.344 255.688 404.227 254.626 405.079 253.539C405.155 253.442 404.979 253.056 404.869 252.842C404.82 252.745 404.641 252.697 404.517 252.687C402.712 252.535 401.17 253.173 399.89 254.591C399.663 254.843 399.721 255.523 400.028 255.764C400.553 256.182 401.098 256.565 401.543 256.893C401.946 256.82 402.285 256.875 402.429 256.713ZM173.819 422.296C173.722 420.698 173.425 419.118 173.201 417.53C173.184 417.399 173.087 417.251 172.984 417.175C172.897 417.11 172.753 417.123 172.639 417.134C172.515 417.147 172.345 417.158 172.28 417.244C172.118 417.468 171.942 417.713 171.887 417.982C171.704 418.835 171.676 419.746 171.4 420.557C170.669 422.696 171.341 424.228 172.918 425.47C173.901 424.656 173.884 423.424 173.819 422.296ZM176.872 406.879C175.537 407.22 174.46 408.069 173.594 409.187C172.828 410.181 172.194 411.295 171.521 412.372C171.231 412.834 171.345 413.466 171.7 413.48C172.066 413.493 172.528 413.5 172.784 413.276C173.177 412.931 173.508 412.427 173.732 411.917C174.346 410.502 175.206 409.549 176.703 409.411C177.041 409.377 177.372 409.011 177.672 408.749C178.021 408.445 178.117 407.662 177.9 407.134C177.848 407.006 177.728 406.917 177.638 406.81C177.383 406.831 177.12 406.813 176.872 406.879ZM207.995 392.652C208.24 392.425 208.309 391.931 208.388 391.541C208.399 391.493 207.933 391.203 207.722 391.241C205.394 391.693 203.068 392.176 200.746 392.687C200.377 392.766 200.029 393.008 199.687 393.208C199.594 393.26 199.48 393.446 199.501 393.532C199.556 393.784 199.646 394.188 199.784 394.222C200.674 394.45 201.578 394.595 202.478 394.764C204.569 394.795 206.411 394.122 207.995 392.652ZM247.291 193.397C247.791 192.758 247.374 191.875 246.653 191.83C246.256 191.806 245.859 191.768 245.469 191.806C243.568 192.003 242.723 192.569 243.813 194.905C244.3 195.95 244.81 197.002 245.131 198.114C245.411 199.076 245.411 200.132 245.59 201.133C245.628 201.357 245.911 201.526 246.08 201.719C246.177 201.488 246.373 201.25 246.359 201.026C246.301 199.997 246.183 198.973 246.09 197.955C246.083 196.299 246.246 194.735 247.291 193.397ZM330.037 241.566C330.893 240.931 331.372 239.809 331.759 238.719C331.793 238.622 331.721 238.398 331.641 238.346C331.424 238.208 331.138 237.984 330.951 238.05C329.796 238.46 328.792 239.143 328.053 240.248C327.481 241.107 326.735 241.61 325.787 241.904C324.472 242.307 323.61 243.481 322.709 244.547C322.64 244.63 322.619 244.837 322.664 244.94C322.713 245.057 322.885 245.223 322.964 245.199C323.589 245.013 324.206 244.785 325.145 244.457C327.022 244.564 328.412 242.77 330.037 241.566ZM236.837 196.178C236.651 196.837 237.155 197.651 237.807 197.844C238.69 198.103 239.584 198.338 240.474 198.572C240.846 198.673 241.281 198.186 241.171 197.782C240.943 196.947 240.839 196.019 240.429 195.312C239.625 193.932 239.111 192.479 238.89 190.864C238.821 190.378 238.369 190.226 237.972 190.25C237.752 190.267 237.386 190.453 237.351 190.629C237.244 191.171 237.262 191.747 237.248 191.947C237.531 193.659 237.189 194.915 236.837 196.178ZM233.801 192.472C233.249 190.019 231.983 188.297 229.623 187.807C229.047 187.686 228.326 188.104 227.998 188.776C227.315 190.184 227.988 192.172 229.364 192.817C230.13 193.176 232.273 193.566 233.322 193.517C233.477 193.197 233.87 192.769 233.801 192.472ZM305.618 176.482C305.669 176.355 305.7 176.158 305.649 176.048C305.524 175.792 305.386 175.516 305.186 175.344C304.658 174.888 304.11 174.464 303.548 174.067C302.081 173.035 300.594 172.052 299.432 170.561C298.904 169.882 298.155 169.523 297.293 169.488C296.513 169.457 295.771 170.503 296.054 171.32C296.151 171.593 296.202 171.917 296.365 172.128C297.061 173.032 297.748 173.953 298.528 174.761C298.893 175.137 299.449 175.444 299.939 175.485C301.691 175.634 303.358 176.106 304.986 176.817C305.086 176.862 305.231 176.779 305.355 176.758C305.445 176.669 305.573 176.596 305.618 176.482ZM289.164 178.342C290.693 179.232 292.242 180.074 293.787 180.923C294.225 181.165 294.995 180.885 295.143 180.395C295.392 179.567 295.847 178.663 295.73 177.887C295.495 176.365 294.584 175.226 293.197 174.764C292.863 174.654 292.359 174.733 292.073 174.947C290.848 175.865 289.544 176.544 288.105 176.91C288.046 176.924 288.026 177.11 287.939 177.348C288.329 177.669 288.712 178.076 289.164 178.342ZM359.169 200.946C358.835 201.844 358.562 202.651 358.234 203.431C357.886 204.259 357.375 205.046 356.509 205.08C354.584 205.163 353.352 206.46 352.155 207.875C352.079 207.965 352.014 208.203 352.059 208.261C352.197 208.451 352.393 208.717 352.569 208.72C353.366 208.734 354.17 208.731 354.957 208.617C357.137 208.299 359.069 207.444 360.259 205.222C360.784 204.242 361.891 203.631 361.784 202.078C360.991 201.737 360.146 201.367 359.169 200.946ZM319.335 309.941C317.168 310.617 315.005 311.266 312.749 311.504C311.976 311.583 311.145 311.849 310.489 312.301C308.695 313.539 306.78 314.495 304.921 315.579C304.869 315.61 304.893 315.872 304.934 316.003C304.976 316.127 305.079 316.241 305.179 316.321C305.279 316.393 305.428 316.479 305.528 316.452C307.191 315.972 308.968 315.737 310.475 314.906C312.079 314.023 313.704 313.636 315.416 313.412C316.075 313.326 316.737 313.281 317.393 313.167C319.024 312.884 320.387 312.035 321.457 310.638C321.588 310.462 321.695 310.013 321.622 309.948C321.443 309.782 321.153 309.761 320.86 309.668C320.38 309.751 319.842 309.782 319.335 309.941ZM312.68 316.445C312.09 316.748 311.59 317.311 310.979 317.525C308.581 318.367 306.166 319.147 303.737 319.888C302.399 320.296 301.326 321.11 300.48 322.283C300.284 322.556 300.18 323.222 300.332 323.425C300.532 323.691 301.036 323.756 301.405 323.749C301.785 323.739 302.216 323.625 302.533 323.398C304.924 321.693 307.674 321.041 310.33 320.151C312.259 319.505 314.115 318.77 315.657 317.294C315.819 317.142 315.909 316.752 315.857 316.521C315.809 316.31 315.543 316.11 315.333 316.017C315.095 315.91 314.812 315.927 314.239 315.844C313.894 315.976 313.259 316.148 312.68 316.445ZM349.885 200.391C349.33 201.668 348.377 202.475 347.263 203.03C345.797 203.769 344.275 204.314 342.623 204.238C341.96 204.207 341.284 204.228 340.629 204.328C340.08 204.414 339.666 204.839 339.38 205.356C339.256 205.58 339.162 205.908 339.211 206.15C339.259 206.398 339.48 206.774 339.656 206.795C341.64 207.03 343.634 207.206 345.624 207.399C346.777 207.509 347.681 206.888 348.543 206.153C349.306 205.501 349.909 204.732 349.992 203.6C350.075 202.42 350.668 201.712 351.652 201.35C352.159 201.164 352.697 201.012 353.145 200.708C353.587 200.412 353.98 199.984 354.312 199.542C354.85 198.828 354.929 197.972 354.612 197.506C354.249 196.971 353.729 196.902 353.19 196.871C352.921 196.858 352.656 196.851 352.386 196.861C352.121 196.875 351.859 196.92 351.407 196.971C350.824 198.283 350.344 199.332 349.885 200.391ZM215.826 190.609C216.955 190.195 217.928 190.481 218.811 191.244C220.291 192.513 222.037 193.248 223.655 194.239C223.751 194.297 223.972 194.28 224.038 194.201C224.193 194.001 224.427 193.725 224.396 193.521C224.148 191.937 223.696 190.409 223.641 188.759C223.589 187.1 221.792 185.54 220.318 185.599C220.187 185.605 220.049 185.595 219.925 185.633C218.614 186.002 217.313 185.868 215.992 185.643C214.616 185.409 214.115 186.082 214.308 187.745C214.409 188.621 214.56 189.491 214.698 190.433C215.085 190.502 215.506 190.726 215.826 190.609ZM364.431 250.406C364.762 250.62 365.183 250.806 365.548 250.782C367.139 250.678 368.722 250.499 370.309 250.326C370.372 250.32 370.447 250.102 370.461 249.974C370.475 249.84 370.465 249.64 370.389 249.571C368.64 247.987 366.908 246.382 365.121 244.854C363.047 243.08 360.563 242.48 358.051 242.073C356.989 241.9 355.947 242.166 355.046 242.953C354.315 243.588 353.515 244.126 352.749 244.709C351.382 245.748 350.382 247.004 350.172 248.963C349.975 250.789 349.085 252.266 347.805 253.439C347.529 253.694 347.549 254.008 347.853 254.153C348.074 254.257 348.415 254.357 348.574 254.239C349.916 253.263 351.1 252.093 351.893 250.516C352.349 249.612 352.721 248.656 353.204 247.773C354.094 246.144 355.374 245.216 357.148 245.302C358.21 245.354 359.273 245.42 360.335 245.496C361.243 245.561 361.702 246.1 361.788 247.235C361.822 247.673 361.76 248.118 361.746 248.505C362.657 249.157 363.527 249.816 364.431 250.406ZM237.607 225.973C236.634 226.48 235.802 227.212 234.905 227.84C233.225 229.02 231.445 230.048 229.627 230.945C228.826 231.342 227.836 231.266 226.801 231.425C227.084 231.925 227.215 232.408 227.505 232.618C228.057 233.019 228.674 233.398 229.309 233.55C231.528 234.075 233.746 234.533 236.04 233.916C238.114 233.36 240.218 232.943 242.382 233.043C243.02 233.07 243.596 232.429 243.751 231.652C243.92 230.786 244.048 229.913 244.165 229.196C243.796 227.978 242.896 227.491 242.302 226.711C241.705 225.924 241.108 225.138 240.463 224.286C239.452 224.889 238.552 225.483 237.607 225.973ZM321.981 163.65C320.308 162.384 318.838 160.907 317.879 158.875C317.762 158.626 317.541 158.429 317.365 158.219C316.834 157.591 315.567 157.836 315.34 158.619C315.178 159.182 315.015 159.747 314.902 160.32C314.788 160.896 314.784 161.504 314.646 162.073C314.398 163.094 313.925 163.981 313.146 164.63C311.969 165.606 310.81 166.607 309.609 167.542C308.436 168.453 308.981 170.603 309.806 170.931C310.979 171.4 311.931 172.149 312.79 173.097C313.529 173.912 314.412 174.012 315.385 173.85C315.933 173.76 316.42 173.549 316.741 173.042C316.968 172.68 317.086 172.228 317.32 171.876C318.355 170.327 319.476 170.085 321.146 171.02C321.505 171.22 321.833 171.483 322.192 171.672C322.523 171.845 323.361 171.355 323.541 170.941C323.903 170.106 323.961 169.254 323.758 168.356C323.527 167.332 323.982 166.655 324.738 166.176C325.2 165.882 325.7 165.662 326.138 165.33C326.318 165.196 326.383 164.865 326.501 164.623C326.27 164.513 326.042 164.344 325.8 164.309C325.545 164.275 325.272 164.364 324.979 164.406C323.892 164.689 322.906 164.35 321.981 163.65ZM323.606 217.771C323.503 218.199 323.361 218.623 323.327 219.061C323.278 219.652 323.292 220.248 323.32 220.842C323.492 224.303 320.304 226.528 317.52 225.628C316.499 225.297 315.53 224.775 314.536 224.334C312.825 223.564 310.789 223.954 309.885 225.621C308.709 227.795 307.08 228.681 304.907 228.675C304.648 228.675 304.379 228.768 304.131 228.868C304.044 228.902 303.986 229.078 303.955 229.202C303.92 229.334 303.893 229.492 303.927 229.62C303.962 229.755 304.048 229.899 304.151 229.982C306.132 231.58 308.253 232.756 310.786 232.719C311.59 232.708 312.39 232.791 313.194 232.798C315.392 232.812 317.399 233.429 319.252 234.799C320.418 235.658 320.822 235.427 321.274 234.03C321.505 233.319 321.678 232.646 321.408 231.88C321.17 231.19 320.939 230.462 320.901 229.737C320.87 229.185 321.112 228.599 321.301 228.057C321.391 227.798 321.612 227.57 321.819 227.394C323.958 225.579 325.383 222.978 327.484 221.108C328.081 220.576 328.419 219.679 328.854 218.934C329.133 218.447 328.854 217.716 328.312 217.54C327.546 217.291 326.773 217.06 325.994 216.857C325.604 216.757 325.2 216.739 325.083 216.725C324.455 216.681 323.713 217.329 323.606 217.771ZM291.893 185.088C288.881 182.893 285.721 181.03 282.202 180.033C281.177 179.743 280.132 179.474 279.08 179.384C277.041 179.205 275.171 178.553 273.463 177.304C273.128 177.062 272.766 176.865 272.435 176.617C270.762 175.364 269.226 175.703 267.66 177.024C267.919 177.486 268.067 177.918 268.34 178.211C269.903 179.905 271.034 181.841 271.452 184.274C271.545 184.805 271.917 185.34 272.287 185.733C273.146 186.651 274.184 187.376 274.795 188.563C275.119 189.194 275.354 190.022 276.161 189.946C276.799 189.884 277.451 189.643 278.045 189.353C278.517 189.118 278.924 188.701 279.345 188.345C281.091 186.875 282.996 186.682 284.997 187.531C285.742 187.848 286.432 188.318 287.16 188.673C287.646 188.911 288.146 189.132 288.661 189.246C289.323 189.394 290.016 189.36 290.524 188.78C291.265 187.941 291.959 187.051 292.701 186.151C292.393 185.737 292.204 185.312 291.893 185.088ZM365.438 265.353C363.061 267.793 360.425 267.8 357.644 266.364C357.165 266.112 356.744 265.726 356.268 265.453C354.888 264.66 353.911 263.538 353.701 261.741C353.67 261.465 353.556 261.106 353.366 260.961C353.066 260.726 352.59 260.416 352.335 260.533C350.986 261.151 349.575 261.716 348.384 262.624C346.018 264.432 343.427 265.481 340.646 266.085C340.132 266.199 339.611 266.409 339.162 266.702C338.842 266.913 338.583 267.306 338.4 267.679C338.31 267.862 338.365 268.293 338.5 268.421C338.797 268.704 339.162 268.928 339.535 269.056C341.667 269.791 343.737 269.746 345.7 268.4C346.152 268.09 346.625 267.793 347.125 267.62C347.622 267.448 348.191 267.272 348.678 267.382C351.162 267.941 353.632 268.569 355.764 270.236C356.306 270.657 356.878 271.14 357.499 271.299C359.1 271.706 360.463 272.606 361.864 273.472C362.761 274.028 364.475 273.503 365.124 272.541C365.359 272.185 365.531 271.778 365.721 271.388C366.439 269.911 367.598 269.37 369.043 269.387C369.74 269.397 370.403 269.535 370.82 270.191C371.696 271.561 372.818 272.568 374.215 273.2C374.974 273.545 375.747 273.704 376.554 273.441C376.678 273.403 376.868 273.314 376.885 273.22C376.923 272.962 376.985 272.596 376.865 272.434C376.433 271.871 375.968 271.326 375.45 270.867C373.673 269.294 371.883 267.765 370.492 265.719C369.744 264.618 368.512 264.263 367.015 263.742C366.407 264.36 365.924 264.856 365.438 265.353ZM357.696 214.524C358.172 214.289 358.731 214.048 359.035 213.62C360.228 211.933 361.781 211.367 363.63 211.501C364.03 211.529 364.431 211.519 364.831 211.491C365.435 211.45 366.163 210.646 366.135 210.038C366.083 208.862 366.031 207.685 365.914 206.515C365.893 206.295 365.597 206.032 365.372 205.936C365.159 205.843 364.848 205.87 364.634 205.981C364.406 206.098 364.199 206.339 364.061 206.581C362.188 209.807 359.418 211.346 356.092 211.874C354.77 212.081 353.459 212.426 352.135 212.53C350.765 212.64 349.519 212.978 348.381 213.858C347.429 214.593 346.342 214.534 345.297 214.158C344.541 213.886 343.81 213.503 343.099 213.099C342.281 212.633 341.498 212.091 340.867 211.688C340.494 211.736 340.346 211.715 340.232 211.777C338.911 212.478 337.596 213.192 336.247 213.92C335.371 215.739 334.626 217.661 333.58 219.348C332.452 221.173 331.069 222.809 329.737 224.475C328.505 226.018 327.198 227.491 325.78 229.161C325.521 229.686 325.825 230.407 325.928 231.121C326.149 232.625 325.849 234.061 325.586 235.513C325.438 236.345 326.539 237.232 327.225 236.869C328.07 236.424 328.898 235.945 329.706 235.427C330.178 235.127 330.579 234.654 330.592 234.03C330.648 231.856 332.217 230.697 333.225 229.199C334.043 227.984 335.402 227.55 336.751 227.287C337.12 227.215 337.468 226.998 337.941 226.801C337.941 225.742 337.793 224.689 337.976 223.716C338.245 222.277 338.724 220.887 339.162 219.493C339.442 218.613 340.053 218.019 340.787 217.609C341.143 217.412 341.529 217.236 341.919 217.178C343.282 216.977 344.475 216.325 345.583 215.48C346.418 214.842 347.305 214.762 348.257 214.962C349.174 215.156 350.109 215.276 351.01 215.539C351.779 215.763 352.507 216.142 353.421 216.525C355.002 215.79 356.357 215.18 357.696 214.524ZM334.788 260.209C334.926 258.973 335.909 257.935 336.913 258.011C337.441 258.052 337.958 258.266 338.486 258.349C339.152 258.452 339.932 257.811 339.825 257.076C339.407 254.201 340.711 252.618 342.913 251.586C343.399 251.362 343.813 250.947 344.251 250.609C345.269 249.83 346.128 248.877 346.39 247.494C346.866 244.995 348.322 243.315 350.03 241.804C350.865 241.065 351.658 240.261 352.507 239.544C353.484 238.715 354.581 238.205 355.84 238.215C357.448 238.229 359.042 238.263 360.636 238.609C361.539 238.805 362.492 238.809 363.416 238.764C364.372 238.722 365.21 237.711 365.21 236.728C365.21 235.244 365.19 233.761 365.169 232.273C365.155 231.421 364.807 230.804 364.096 230.621C363.33 230.417 362.537 230.307 361.75 230.238C361.529 230.217 361.219 230.424 361.074 230.631C360.839 230.973 360.649 231.383 360.546 231.797C360.073 233.695 358.831 234.803 357.317 235.517C355.098 236.566 352.794 237.346 350.351 237.418C349.682 237.435 349.012 237.353 348.346 237.391C347.953 237.411 347.47 237.453 347.201 237.711C345.628 239.219 343.516 239.416 341.774 240.524C340.87 241.1 339.766 241.293 338.759 241.676C338.303 241.849 337.924 242.497 337.951 243.084C337.986 243.822 338.089 244.561 338.103 245.299C338.145 247.452 337.234 248.97 335.536 249.954C334.319 250.661 333.059 250.999 331.665 250.816C330.693 250.689 329.875 250.354 329.178 249.567C328.816 249.16 328.326 248.894 327.884 248.587C327.681 248.449 326.956 248.967 326.956 249.243C326.963 250.568 327.115 251.914 326.946 253.208C326.794 254.36 326.18 255.43 325.969 256.579C325.783 257.579 325.787 258.652 325.88 259.674C325.925 260.205 326.249 260.806 326.608 261.182C327.384 261.996 328.243 262.714 329.102 263.424C330.051 264.208 331.131 264.242 332.093 263.535C332.98 262.879 333.839 262.182 334.781 261.444C334.781 261.071 334.743 260.633 334.788 260.209ZM246.656 225.583C248.495 226.791 250.255 228.143 252.069 229.396C253.015 230.048 254.07 230.289 255.157 229.927C256.854 229.365 258.297 230.003 259.718 230.948C261.088 231.859 262.261 233.122 263.831 233.698C264.276 233.864 264.665 234.444 264.931 234.934C265.618 236.207 266.239 237.525 266.849 238.85C267.595 240.458 268.171 242.076 267.646 243.974C267.46 244.643 267.608 245.451 267.695 246.182C267.764 246.797 268.136 247.273 268.633 247.542C269.109 247.797 269.616 248.053 270.13 248.132C271.528 248.353 272.638 249.108 273.601 250.199C276.323 253.283 277.134 252.704 279.721 252.014C282.264 251.341 284.779 251.548 287.301 251.569C288.16 251.575 289.012 252.307 289.868 252.697C290.172 252.835 290.665 252.331 290.613 251.91C290.524 251.186 290.444 250.447 290.265 249.747C290.158 249.336 289.878 248.97 289.651 248.605C288.892 247.387 288.115 246.179 287.35 244.964C286.949 244.326 286.19 244.447 285.807 245.227C285.614 245.616 285.49 246.051 285.276 246.42C284.645 247.504 283.568 247.877 282.471 247.421C280.501 246.6 279.114 245.051 278.117 243.042C277.865 242.532 277.714 241.959 277.538 241.469C272.87 240.268 273.47 240.482 270.289 237.111C268.395 235.103 266.87 232.926 265.911 230.286C265.342 228.726 264.593 227.877 262.999 227.815C260.398 227.715 258.093 226.446 255.823 225.159C254.947 224.662 254.288 223.865 254.129 222.791C253.636 219.472 252.19 216.646 250.524 213.937C249.533 212.33 248.764 210.618 248.143 208.8C247.615 207.257 246.28 206.467 244.624 206.657C244.431 206.678 244.151 207.016 244.117 207.244C244.031 207.816 243.927 208.455 244.076 208.983C244.389 210.114 244.814 211.215 245.273 212.288C246.284 214.652 246.139 216.888 244.793 219.03C244.493 219.513 244.176 219.983 243.779 220.587C244.169 222.947 245.028 224.513 246.656 225.583ZM298.217 256.537C296.12 257.365 296.026 257.196 296.099 260.005C296.147 261.844 296.089 261.844 294.905 264.611C294.888 265.257 295.219 265.705 295.568 266.168C295.999 266.73 296.52 267.275 296.765 267.938C297.493 269.887 298.504 271.602 299.742 273.189C300.073 273.617 300.253 274.228 300.398 274.79C300.546 275.353 300.425 276.043 300.663 276.533C301.526 278.3 300.984 280.422 301.795 282.123C302.568 283.748 302.706 285.525 303.206 287.209C303.372 287.771 303.523 288.344 303.723 288.893C303.996 289.638 304.548 290.066 305.235 290.193C305.752 290.29 306.359 290.432 306.804 290.224C308.554 289.414 310.23 290.131 311.921 290.383C312.286 290.435 312.632 290.77 312.949 291.032C313.566 291.543 313.518 292.916 312.876 293.354C312.538 293.585 312.186 293.868 311.81 293.948C310.762 294.168 309.699 294.32 308.64 294.451C307.826 294.551 307.111 294.9 306.37 295.255C304.903 295.963 303.917 297.153 303.554 298.802C303.258 300.141 302.826 301.297 302.005 302.343C301.698 302.736 301.595 303.436 301.591 303.999C301.584 305.683 302.005 307.246 303.123 308.45C303.789 309.164 304.331 310.058 304.862 310.282C305.828 310.665 306.28 310.303 306.742 310.034C307.574 309.551 308.374 309.006 309.219 308.564C311.276 307.484 313.346 306.542 315.709 306.542C317.306 306.542 318.859 306.014 320.353 305.293C322.312 304.344 324.324 303.533 326.28 302.577C326.732 302.36 327.125 301.856 327.394 301.376C327.574 301.059 327.591 300.51 327.481 300.141C327.363 299.751 327.022 299.43 326.746 299.116C325.621 297.843 324.582 296.501 323.703 294.993C323.054 293.882 322.185 292.93 321.453 291.874C320.063 289.859 318.842 287.747 318.455 285.166C318.324 284.279 318.238 283.41 318.462 282.523C318.79 281.239 319.087 279.949 319.404 278.662C319.649 277.661 319.935 276.674 320.146 275.663C320.304 274.925 320.191 274.197 319.859 273.514C318.914 271.55 317.962 269.591 317.041 267.613C316.54 266.533 316.351 265.367 316.523 264.156C316.606 263.573 316.692 262.976 316.868 262.424C317.279 261.13 317.317 259.815 317.227 258.466C317.034 255.495 316.723 252.566 315.492 249.847C315.191 249.181 315.674 247.908 316.32 247.538C316.668 247.342 317.082 247.29 317.455 247.138C318.365 246.769 318.731 246.217 318.724 245.168C318.721 244.574 318.673 243.981 318.617 243.391C318.552 242.628 318.742 241.949 319.021 241.252C319.528 239.975 319.39 239.274 318.645 238.529C317.634 237.518 316.471 236.8 315.147 236.469C313.974 236.179 312.794 235.786 311.607 235.748C310.099 235.7 308.712 235.303 307.336 234.713C306.842 234.502 306.149 234.823 305.956 235.299C305.676 235.972 305.497 236.707 305.155 237.332C304.093 239.254 302.581 240.234 300.48 240.134C299.111 240.068 297.893 239.475 296.606 239.112C296.509 239.085 296.299 239.195 296.275 239.281C296.213 239.516 296.123 239.875 296.223 240.006C297.745 241.89 299.694 242.677 301.936 242.697C303.406 242.711 304.879 242.794 306.345 242.742C307.608 242.694 308.709 243.149 309.778 243.795C313.28 245.917 314.101 247.611 313.787 252.062C313.708 253.211 313.101 253.97 312.228 254.477C311.879 254.681 311.483 254.843 311.096 254.898C310.144 255.036 309.313 255.45 308.498 255.996C306.525 257.327 304.486 257.49 302.388 256.316C301.912 256.054 301.391 255.885 300.584 255.544C299.715 255.913 298.969 256.241 298.217 256.537ZM394.732 253.856C395.105 253.877 395.636 253.822 395.836 253.56C397.199 251.765 399.362 251.651 400.987 250.433C401.291 250.206 401.391 249.512 401.118 249.312C401.011 249.233 400.922 249.119 400.811 249.05C400.008 248.549 399.2 248.053 398.389 247.563C397.73 247.162 397.41 247.283 396.796 248.135C396.554 248.473 396.382 248.995 396.071 249.126C394.874 249.633 394.253 250.761 393.552 251.803C393.104 252.473 392.052 252.535 392.062 253.649C391.724 253.56 391.386 253.411 391.048 253.401C390.886 253.397 390.72 253.653 390.558 253.794C390.741 253.905 390.924 254.098 391.113 254.108C391.493 254.132 391.827 253.974 391.986 253.535C392.904 253.656 393.818 253.805 394.732 253.856ZM284.324 175.561L284.472 175.316C284.041 174.981 283.582 174.681 283.158 174.333C282.499 173.788 282.012 173.104 281.923 172.155C281.854 171.417 281.705 170.73 281.271 170.116C280.825 169.492 280.125 169.264 279.542 169.744C279.011 170.178 278.497 170.648 278.021 171.155C277.852 171.341 277.755 171.669 277.724 171.945C277.627 172.828 278.359 174.219 279.094 174.447C280.494 174.885 281.902 175.292 283.323 175.616C283.655 175.689 284.055 175.368 284.42 175.23L284.324 175.561ZM383.002 276.619L383.151 276.719C383.785 277.523 384.548 277.24 385.3 277.033C385.034 277.344 384.672 277.609 384.493 277.982C384.082 278.834 384.506 279.952 385.272 280.115C386.311 280.335 387.363 280.498 388.553 280.711C389.061 280.394 389.664 280.09 390.192 279.669C392.138 278.12 394.294 277.703 396.63 278.041C397.279 278.134 397.941 278.113 398.596 278.099C398.997 278.089 399.576 277.382 399.642 276.895C399.797 275.732 399 274.366 398.034 274.207C397.648 274.142 397.244 274.187 396.847 274.183C395.792 274.173 394.919 272.979 393.797 273.531C392.952 273.945 392.179 274.535 391.341 274.97C390.137 275.594 388.985 276.278 387.908 277.168C387.118 277.816 386.149 277.744 385.31 277.03C384.572 276.95 383.837 276.871 383.099 276.788L383.002 276.619ZM320.553 265.778C320.298 265.702 320.329 265.643 320.649 265.605C320.615 265.819 320.587 266.05 320.563 266.285C320.594 266.254 320.66 266.202 320.656 266.195C320.601 266.085 320.515 265.988 320.484 265.871C320.453 265.757 320.48 265.626 320.484 265.505C320.508 265.595 320.529 265.685 320.553 265.778ZM387.26 253.484C387.218 253.48 387.184 253.297 387.149 253.197C387.246 253.159 387.342 253.125 387.442 253.087C387.525 253.107 387.611 253.125 387.698 253.145C387.639 253.104 387.584 253.066 387.525 253.025C387.667 253.325 387.577 253.497 387.26 253.484ZM215.309 178.411C215.657 178.656 215.996 178.901 216.351 179.15C216.278 179.557 216.127 179.964 216.134 180.368C216.14 180.564 216.434 180.778 216.63 180.93C216.713 180.992 216.993 180.93 216.996 180.899C217.027 180.654 217.082 180.364 216.993 180.167C216.82 179.784 216.554 179.45 216.33 179.098C215.833 179.174 215.547 178.791 215.23 178.477C214.816 178.183 214.402 177.894 213.984 177.604C214.353 177.003 214.729 176.403 215.105 175.803C215.475 175.209 216.14 174.843 216.234 173.722C215.923 173.032 215.495 172.117 215.095 171.193C214.864 170.658 214.591 170.123 214.481 169.557C214.315 168.674 214.305 167.725 214.916 167.031C215.654 166.186 216.561 165.551 217.017 164.392C217.531 163.091 218.949 162.856 219.704 161.797C220.574 160.582 221.84 160.082 223.082 159.492C224.572 158.785 225.966 159.013 227.346 159.716C227.95 160.023 228.478 160.507 229.064 160.865C230.061 161.476 230.634 162.439 231.007 163.595C231.269 164.419 231.566 165.234 231.79 165.889C234.308 167.245 236.689 166.711 239.056 166.221C239.559 166.117 240.046 165.793 240.491 165.486C241.057 165.096 241.533 164.509 242.13 164.216C242.84 163.867 243.637 163.74 244.493 163.488C244.617 162.701 244.693 161.977 244.852 161.273C245.283 159.361 246.639 158.609 248.212 159.44C248.806 159.754 249.351 160.21 249.861 160.672C250.575 161.317 250.948 162.391 252.045 162.784C252.576 162.825 253.242 162.898 253.908 162.922C258.062 163.077 261.288 165.254 263.996 168.581C264.258 168.902 264.531 169.219 264.828 169.502C265.217 169.878 266.346 169.588 266.587 168.971C266.722 168.626 266.697 168.067 266.528 167.742C266.266 167.245 265.811 166.876 265.452 166.438C264.117 164.816 263.413 163.022 263.886 160.738C264.12 159.592 264.058 158.371 264.11 157.18C264.141 156.421 264.289 155.724 264.717 155.103C265.204 154.392 265.621 153.623 266.135 152.943C267.729 150.828 270.016 150.159 272.276 151.294C273.391 151.853 274.464 152.267 275.706 152.37C278.669 152.626 281.491 153.44 283.748 155.666C284.796 155.455 285.69 155.176 285.794 153.844C285.866 152.943 286.087 152.115 286.511 151.321C286.987 150.431 287.422 149.493 287.715 148.516C288.164 147.022 289.102 146.014 290.134 145.052C291.038 144.21 292.062 143.999 293.146 144.386C294.281 144.793 295.381 145.328 296.599 145.852C297.424 145.497 298.414 145.307 299.125 144.71C300.156 143.844 301.302 143.675 302.478 143.392C304.821 142.826 307.287 143.137 309.571 142.102C310.179 141.826 310.917 142.05 311.493 142.485C312.038 142.902 312.649 143.313 313.025 143.892C313.915 145.262 315.105 146.159 316.351 147.053C317.251 147.695 318.1 148.35 319.124 148.778C320.946 149.534 322.392 150.8 322.785 153.116C322.892 153.744 323.292 154.144 323.827 154.351C324.834 154.741 325.842 155.12 326.711 155.452C327.96 156.946 328.553 158.564 328.681 160.4C329.654 162.211 330.468 164.054 329.951 166.269C329.892 166.521 330.013 166.869 330.137 167.121C330.679 168.218 330.582 169.426 330.696 170.603C330.734 170.996 331.276 171.265 331.641 171.072C331.879 170.941 332.104 170.772 332.331 170.613C333.321 169.92 334.308 169.819 335.343 170.534C335.899 170.917 336.509 171.203 337.106 171.545C338.258 170.896 339.311 170.254 340.401 169.712C341.495 169.174 342.63 168.736 343.682 168.277C343.682 167.856 343.734 167.559 343.675 167.294C343.513 166.586 343.026 165.8 343.185 165.22C343.403 164.437 344.072 163.785 344.607 163.139C345.083 162.563 345.762 162.391 346.439 162.373C346.97 162.359 347.515 162.397 348.029 162.529C349.982 163.022 351.948 163.477 353.711 164.633C353.846 164.723 354.305 164.523 354.377 164.34C354.594 163.812 354.657 163.208 354.839 162.66C355.654 160.234 357.634 159.199 359.625 160.231C360.839 160.859 362.012 161.521 363.396 161.621C364.041 161.666 364.676 162.021 365.3 162.28C367.301 163.105 369.295 163.95 371.382 164.823C371.952 164.416 372.514 164.03 373.063 163.626C373.877 163.025 374.739 162.742 375.73 162.97C376.116 163.06 376.53 163.043 376.93 163.036C377.813 163.022 378.448 163.46 378.938 164.257C380.008 165.986 380.853 167.832 381.401 169.84C381.681 170.862 382.547 171.71 383.958 171.238C384.341 171.11 384.703 170.91 385.076 170.741C386.014 170.313 386.904 170.434 387.753 171.037C388.201 171.362 388.747 171.576 389.102 171.993C391.127 174.367 393.611 176.203 395.502 178.736C396.009 179.408 396.402 180.233 396.951 180.433C398.162 180.433 399.104 180.333 400.021 180.454C401.888 180.699 403.147 181.641 403.482 183.566C403.685 184.729 403.847 185.954 404.665 186.827C405.938 188.186 406.625 189.995 407.418 191.371C408.864 192.182 410.071 192.82 411.241 193.538C412.155 194.097 412.473 195.519 412.086 196.675C411.641 198.017 410.758 198.935 409.688 199.552C408.629 200.17 407.453 200.539 406.331 201.019C405.296 201.46 404.258 201.498 403.178 201.209C402.274 200.967 401.315 200.625 400.425 200.739C398.69 200.957 396.985 201.064 395.26 200.76C394.953 200.705 394.736 200.988 394.801 201.347C395.064 202.817 395.781 204.069 396.488 205.304C396.644 205.577 397.192 205.718 397.541 205.677C398.058 205.615 398.583 205.394 399.059 205.142C400.642 204.307 402.16 204.397 403.661 205.384C404.237 205.76 404.924 205.967 405.428 206.426C406.411 207.319 407.532 207.692 408.747 207.854C409.606 207.968 410.209 208.506 410.696 209.269C411.389 210.356 412.052 211.474 412.818 212.495C413.694 213.661 414.329 214.938 414.729 216.384C414.922 217.077 414.908 217.871 415.422 218.392C415.705 218.392 415.995 218.478 416.219 218.378C417.375 217.861 418.317 218.258 419.128 219.179C419.876 220.038 420.535 220.97 420.908 222.119C421.129 222.809 421.394 223.478 421.646 224.172C423.389 224.72 424.927 225.78 426.766 225.231C426.883 225.196 427.025 225.269 427.156 225.29C427.922 225.4 428.715 226.152 428.671 227.06C428.581 228.882 429.33 229.81 430.848 230.224C431.624 230.438 432.41 230.707 433.114 231.114C434.515 231.932 435.312 233.219 435.346 235.051C435.367 236.342 434.97 237.453 434.066 238.177C432.662 239.306 431.186 240.327 429.678 241.279C429.274 241.535 428.653 241.386 428.132 241.397C427.197 241.407 426.628 241.904 426.573 242.918C426.542 243.494 426.569 244.126 426.756 244.65C427.253 246.031 427.863 247.356 428.408 248.715C428.743 249.557 428.788 250.447 428.612 251.337C428.474 252.052 428.301 252.752 428.167 253.349C428.833 254.519 429.471 255.485 429.954 256.537C430.492 257.71 430.885 258.966 431.389 260.312C431.886 260.312 432.407 260.329 432.924 260.309C434.829 260.243 434.843 260.212 434.204 257.959C434.087 257.538 433.925 257.117 433.887 256.682C433.78 255.43 434.053 254.288 434.995 253.501C436.171 252.521 437.379 251.579 438.796 251.044C439.787 250.675 440.98 251.041 441.736 251.931C442.312 252.607 442.505 253.473 442.819 254.291C442.954 254.65 443.302 254.909 443.544 255.199C443.851 254.96 444.054 254.791 444.268 254.64C447.515 252.297 450.496 253.083 452.341 256.775C453.121 258.328 453.718 259.998 454.836 261.33C455.081 261.62 455.17 262.117 455.233 262.538C455.295 262.972 455.201 263.428 455.236 263.87C455.281 264.501 455.533 265.008 456.119 265.195C456.63 265.357 457.161 265.446 457.661 265.633C458.341 265.888 458.634 266.837 458.241 267.451C457.62 268.421 457.016 269.404 456.347 270.325C455.201 271.895 453.739 272.82 451.889 273.007C450.806 273.113 449.768 273.124 448.715 272.758C448.087 272.541 447.411 272.468 446.752 272.41C445.921 272.334 445.12 273.179 445.283 274.069C445.676 276.202 445.262 278.21 444.693 280.208C444.496 280.905 444.21 281.571 444.003 282.14C444.896 284.01 445.524 285.811 445.897 287.692C446.111 288.768 445.759 289.735 444.91 290.428C444.123 291.073 443.282 291.456 442.291 291.239C441.636 291.097 440.987 290.739 440.342 290.756C438 290.825 436.209 289.786 434.853 287.713C434.784 287.606 434.618 287.575 434.577 287.554C431.434 287.288 428.37 287.074 425.317 286.76C422.509 286.47 419.718 285.984 417.196 284.479C416.105 283.827 415.067 283.348 413.78 283.482C413.163 283.544 412.486 283.185 411.869 282.923C409.123 281.767 406.387 280.577 403.599 279.376C403.302 279.635 402.916 279.838 402.699 280.18C401.84 281.512 400.611 281.957 399.231 282.116C397.9 282.268 396.575 282.492 395.243 282.592C394.146 282.671 393.135 282.909 392.241 283.669C391.817 284.024 391.293 284.228 390.858 284.573C389.806 285.401 388.633 285.539 387.404 285.404C386.608 285.314 385.814 285.138 385.014 285.08C383.899 284.994 382.954 284.521 382.078 283.779C381.229 283.061 380.415 282.126 379.445 281.785C377.886 281.243 376.502 280.391 375.095 279.542C374.374 279.107 373.549 278.91 372.762 279.238C371.155 279.908 369.561 279.524 368.015 279.131C366.035 278.624 364.075 278.348 362.054 278.631C361.239 278.748 360.46 278.576 359.707 278.196C359.1 277.889 358.417 277.706 357.879 277.289C355.837 275.701 353.359 277.147 351.248 276.05C350.913 275.877 350.461 275.964 350.061 275.977C349.799 275.984 349.523 276.036 349.278 276.136C347.581 276.816 345.852 276.699 344.117 276.429C343.054 276.264 341.995 276.074 340.929 276.008C340.418 275.974 339.88 276.15 339.376 276.322C339.152 276.398 338.883 276.664 338.821 276.906C338.769 277.109 338.983 277.402 339.087 277.651C339.432 278.462 339.138 279.197 338.459 279.221C338.327 279.224 338.183 279.283 338.062 279.248C335.788 278.61 333.863 279.49 332.073 280.946C331.759 281.201 331.472 281.498 331.213 281.74C331.117 282.268 331.051 282.706 330.958 283.137C330.534 285.066 331.086 286.664 332.349 287.971C334.232 289.917 335.667 292.236 336.972 294.672C337.451 295.566 337.903 296.494 338.486 297.301C339.842 299.179 340.153 301.294 339.904 303.605C339.463 307.67 339.711 307.739 336.62 310.241C336.188 310.589 335.74 310.914 335.336 311.3C335.143 311.483 334.957 311.762 334.912 312.032C334.867 312.283 334.929 312.739 335.078 312.829C336.489 313.667 337.962 314.34 339.576 314.488C339.797 314.509 340.108 314.299 340.26 314.092C340.501 313.753 340.767 313.343 340.818 312.932C341.236 309.609 341.746 309.34 344.641 308.943C345.29 308.854 345.89 308.409 346.535 308.243C347.177 308.077 347.853 307.977 348.512 307.988C349.737 308.008 350.706 309.437 350.472 310.783C350.32 311.652 350.103 312.511 350.002 313.388C349.871 314.478 350.199 315.406 350.899 316.224C351.658 317.111 352.321 318.063 353.594 317.183C353.918 316.959 354.35 316.883 354.743 316.821C357.213 316.424 358.355 317.29 359.404 319.34C359.801 320.113 360.015 320.999 360.442 321.745C361.043 322.794 361.881 323.498 363.113 323.304C364.041 323.156 364.989 322.983 365.897 323.335C366.928 323.736 367.963 323.888 369.05 323.832C369.754 323.798 370.33 324.205 370.782 324.795C371.652 325.927 372.518 327.062 373.38 328.201C373.553 328.425 373.715 328.663 373.863 328.911C374.712 330.347 374.594 331.938 373.332 333.273C372.614 334.035 372.314 334.981 371.862 335.878C371.075 337.445 369.174 338.359 367.753 337.731C366.232 337.062 364.644 336.872 363.075 336.52C361.091 336.078 360.943 336.078 358.98 336.568C358.493 336.692 357.917 336.613 357.427 336.451C356.792 336.247 356.206 335.85 355.588 335.567C355.109 335.354 354.553 335.643 354.243 336.244C353.697 337.289 353.18 338.331 353.953 339.542C354.18 339.901 354.308 340.343 354.446 340.76C354.691 341.516 354.515 342.227 354.156 342.882C353.553 343.976 352.669 344.635 351.503 344.535C350.579 344.456 349.613 344.335 348.771 343.949C347.277 343.262 345.78 342.696 344.168 342.448C342.547 342.199 341.06 341.599 339.956 340.122C339.607 339.656 339.076 339.47 338.51 339.501C338.379 339.508 338.245 339.515 338.11 339.535C336.499 339.787 335.236 339.211 334.312 337.676C333.87 336.948 333.435 336.171 332.559 335.785C331.869 336.064 331.12 336.368 330.368 336.672C329.589 336.989 328.823 336.999 328.015 336.71C327.001 336.34 325.973 335.909 324.924 335.799C321.671 335.46 319.135 333.608 316.813 331.289C315.264 329.743 314.388 327.766 314.194 325.44C314.16 324.999 314.174 324.55 314.139 324.108C314.112 323.753 313.598 323.446 313.197 323.542C312.411 323.736 311.621 323.898 311.369 324.974C310.886 327.024 309.585 328.228 307.891 328.994C307.522 329.163 307.125 329.267 306.756 329.436C306.135 329.719 305.521 330.012 304.914 330.33C303.551 331.044 303.354 331.868 304.248 333.062C304.503 333.404 304.738 333.777 305.024 334.087C306.073 335.226 307.156 336.33 308.188 337.486C308.319 337.631 308.315 338.066 308.219 338.28C308.122 338.493 307.843 338.69 307.619 338.728C307.377 338.769 307.063 338.69 306.863 338.535C305.072 337.127 302.975 336.599 300.929 335.944C298.314 335.105 295.899 335.464 293.856 337.645C293.663 337.852 293.511 338.124 293.291 338.276C292.497 338.814 291.714 339.394 290.865 339.805C290.137 340.157 289.33 340.308 288.554 340.533C287.629 340.802 286.818 341.247 286.145 342.044C284.734 343.707 282.996 344.756 281.015 345.384C279.991 345.708 278.956 346.116 278.038 346.699C276.147 347.906 274.129 348.607 272.007 349.045C269.744 349.511 267.653 350.429 265.787 351.988C263.527 353.876 260.905 354.311 258.162 354.003C257.365 353.914 256.589 353.645 255.795 353.493C255.264 353.393 254.715 353.389 254.322 353.903C253.915 354.435 253.394 354.939 253.698 355.843C254.733 356.012 255.792 356.143 256.834 356.377C257.486 356.522 258.134 356.757 258.735 357.074C259.356 357.406 259.725 358.037 259.897 358.796C260.029 359.365 259.68 360.159 259.225 360.204C258.431 360.28 257.627 360.432 256.841 360.363C254.198 360.128 251.786 360.718 249.668 362.561C248.699 363.403 247.605 363.91 246.38 364.113C245.587 364.248 244.807 364.652 244.024 364.645C242.433 364.631 241.229 365.466 240.032 366.456C238.148 368.012 237.3 370.041 237.579 372.64C237.717 373.916 238.159 374.913 239.387 375.276C240.315 375.552 241.157 376 241.54 377.084C241.867 378.005 242.478 378.443 243.344 378.616C244.127 378.775 244.9 379.033 245.656 379.33C246.497 379.661 247.056 380.745 247.067 381.814C247.077 382.925 246.739 383.902 246.004 384.602C245.404 385.172 244.693 385.641 243.969 385.99C243.247 386.338 242.451 386.479 241.843 386.666C241.64 386.966 241.547 387.076 241.481 387.204C238.493 392.68 238.507 392.701 233.946 396.158C232.846 396.99 231.666 397.732 230.444 398.315C227.619 399.667 224.776 400.996 221.681 401.434C221.019 401.527 220.349 401.669 219.715 401.889C214.795 403.608 209.727 403.877 204.628 403.753C203.624 403.729 202.723 403.973 202.047 404.726C200.198 406.779 197.9 407.945 195.547 409.025C194.805 409.363 194.026 409.618 193.318 410.033C192.618 410.443 191.956 410.961 191.338 411.516C190.72 412.072 190.096 412.662 189.623 413.359C188.091 415.622 186.011 416.237 183.613 416.04C183.348 416.016 183.079 415.978 182.813 415.981C182.106 415.988 181.536 416.53 181.405 417.272C181.015 419.518 181.081 421.712 182.037 423.793C182.533 424.88 182.951 426.012 182.547 427.206C182.171 428.31 182.416 429.228 182.875 430.18C183.061 430.566 183.272 431.018 183.251 431.426C183.234 431.816 183.006 432.285 182.737 432.544C182.095 433.165 181.105 433.12 180.546 432.492C180.174 432.074 179.894 431.55 179.535 431.115C179.366 430.912 179.08 430.646 178.883 430.677C177.693 430.867 176.51 430.753 175.319 430.704C175.154 430.698 174.999 431.146 174.798 431.339C173.774 432.343 172.828 432.375 172.011 431.381C171.29 430.504 170.662 429.528 169.917 428.679C169.685 428.417 169.199 428.431 168.83 428.32C169.006 426.926 169.209 425.539 169.34 424.142C169.361 423.904 169.037 423.855 168.83 424.038C168.83 425.467 168.83 426.885 168.83 428.306C169.365 428.848 169.492 429.6 169.582 430.321C169.63 430.715 169.513 431.229 169.299 431.546C168.63 432.537 167.667 432.758 166.846 432.112C166.308 431.691 165.752 431.219 165.394 430.625C164.797 429.645 164.365 428.541 163.848 427.499C163.441 426.685 163.293 425.819 163.506 424.921C163.789 423.752 163.879 422.575 163.727 421.388C163.7 421.188 163.441 421.012 163.265 420.871C163.224 420.836 163.003 420.953 162.975 421.043C162.675 422.016 162.22 422.965 162.678 424.042C162.847 424.438 162.951 424.883 163.023 425.315C163.358 427.385 161.861 428.027 160.55 427.568C160.06 427.395 159.529 427.075 159.218 426.643C157.893 424.804 156.499 423.041 156.603 420.367C156.651 419.094 156.068 417.793 155.727 416.295C156.423 414.435 157.324 412.458 157.672 410.226C157.948 408.463 158.721 406.865 159.763 405.45C160.184 404.878 160.608 404.267 160.857 403.59C161.581 401.638 162.982 400.557 164.648 399.857C165.639 399.44 166.691 399.177 167.733 398.925C169.958 398.384 172.201 397.842 174.174 396.545C175.354 395.772 176.575 395.223 177.872 394.881C179.511 394.454 180.871 393.663 181.74 391.98C182.082 391.314 182.634 390.92 183.341 390.772C183.858 390.661 184.396 390.517 184.862 390.247C187.702 388.612 190.6 387.073 193.325 385.224C195.281 383.899 197.351 382.884 199.39 381.77C200.363 381.238 201.388 380.945 202.471 380.841C204.469 380.645 206.48 380.52 208.454 380.158C209.675 379.934 210.824 379.813 211.997 380.307C212.37 380.462 212.773 380.541 213.166 380.614C215.078 380.966 216.903 380.762 218.573 379.558C219.018 379.237 219.463 378.899 219.946 378.661C220.984 378.153 222.678 379.302 222.471 380.614C222.399 381.052 222.271 381.476 222.213 381.914C222.15 382.37 222.513 382.781 222.934 382.701C223.451 382.605 224.117 382.608 224.434 382.253C225.556 380.993 226.608 379.644 227.253 377.971C227.905 376.28 227.805 375.911 226.066 375.069C225.4 374.748 224.948 374.303 224.724 373.554C224.296 372.146 223.862 370.738 223.451 369.324C223.027 367.85 223.141 366.384 223.589 364.945C223.851 364.106 224.272 363.316 224.445 362.461C225.045 359.455 226.397 356.971 228.426 354.897C229.006 354.304 229.534 353.645 230.048 353.058C229.903 352.644 229.834 352.354 229.709 352.099C229.578 351.843 229.358 351.64 229.24 351.378C228.764 350.329 229.237 349.114 230.189 348.928C230.713 348.824 231.245 348.676 231.773 348.686C233.284 348.71 234.702 348.355 235.995 347.503C237.289 346.65 238.669 346.129 240.167 346.029C241.716 345.922 243.02 345.36 243.92 343.842C244.396 343.038 245.159 342.734 246.014 342.8C247.132 342.882 248.119 342.555 249.023 341.806C249.444 341.454 249.947 341.195 250.448 340.992C251.417 340.598 251.962 339.943 252.1 338.742C252.187 337.986 252.777 337.445 253.453 337.244C254.357 336.975 255.281 336.803 256.199 336.616C256.875 336.478 257.541 336.268 257.965 335.661C259.283 333.77 260.991 333.411 262.992 333.853C263.772 334.022 264.593 334.011 265.393 333.997C266.059 333.984 266.735 333.922 267.381 333.749C269.471 333.19 276.434 329.298 277.986 327.573C280.149 325.161 282.488 323.415 285.707 323.525C286.128 323.539 286.701 323.015 286.967 322.566C287.401 321.831 287.653 320.961 287.953 320.137C288.157 319.585 287.905 318.943 287.267 318.801C285.814 318.477 284.941 317.425 284.238 316.107C283.899 315.468 283.637 314.771 283.272 314.154C282.982 313.667 282.609 313.225 282.212 312.836C282.071 312.694 281.754 312.742 281.519 312.767C281.453 312.773 281.346 313.022 281.364 313.143C281.522 314.316 281.785 315.479 281.857 316.655C281.919 317.694 281.774 318.77 281.15 319.616C279.501 321.852 277.565 323.646 274.878 324.029C273.68 324.201 272.518 324.371 271.376 324.895C269.661 325.682 267.964 325.275 266.359 324.364C265.859 324.077 265.621 323.532 265.614 322.89C265.597 321.724 266.304 320.803 267.343 320.972C268.874 321.224 270.268 320.844 271.638 320.22C272.297 319.916 272.707 319.267 272.673 318.463C272.611 316.983 272.438 315.51 272.362 314.029C272.228 311.404 272.721 309.075 274.657 307.246C276.064 305.921 277.572 304.61 278.038 302.419C278.09 302.184 278.393 301.98 278.617 301.835C280.246 300.773 283.33 300.887 284.738 302.163C286.308 303.585 287.66 305.213 288.219 307.484C288.571 308.916 288.995 310.324 289.395 311.738C289.523 312.19 290.299 312.587 290.744 312.411C291.866 311.966 292.98 311.5 294.177 311.01C294.315 309.941 294.553 308.923 294.557 307.901C294.567 305.524 294.426 303.147 294.415 300.766C294.408 298.985 294.284 297.146 294.639 295.442C294.981 293.813 295.302 292.322 294.781 290.687C294.553 289.973 294.902 289.238 295.112 288.527C295.229 288.123 295.302 287.626 295.202 287.233C294.267 283.506 293.404 279.759 290.582 277.05C289.775 276.278 289.04 275.436 288.119 274.808C286.639 273.793 285.231 272.661 283.744 271.668C282.947 271.136 282.064 270.76 281.198 270.374C280.587 270.101 279.856 270.067 279.321 269.68C278.193 268.859 277.03 268.856 275.875 269.339C274.853 269.763 273.87 270.101 272.759 269.974C272.4 269.932 271.99 270.184 271.641 270.381C270.603 270.974 269.599 270.809 268.533 270.432C266.083 269.563 263.924 268.065 261.716 266.668C260.836 266.112 260.532 265.101 260.418 264.028C260.315 263.079 260.957 262.117 261.961 261.699C262.737 261.378 263.689 261.665 263.996 262.565C264.831 265.032 266.535 266.306 268.657 267.089C269.164 267.275 269.668 267.475 269.944 267.579C271.624 267.289 273.073 267.082 274.508 266.775C275.288 266.609 276.144 266.457 276.785 265.992C278.383 264.832 280.153 264.163 281.929 263.552C282.754 263.269 283.31 262.765 283.906 262.162C284.693 261.368 284.941 260.071 286.021 259.543C286.49 259.315 286.901 258.884 287.281 258.476C287.453 258.294 287.577 257.931 287.55 257.673C287.456 256.768 286.249 255.347 285.504 255.188C283.506 254.767 281.522 254.643 279.583 255.519C279.211 255.688 278.835 255.851 278.455 255.985C277.789 256.22 277.103 256.206 276.506 255.82C274.546 254.543 272.414 253.611 270.589 252.059C269.968 251.531 269.199 251.203 268.471 250.858C268.288 250.772 267.922 250.899 267.77 251.072C267.636 251.22 267.577 251.648 267.677 251.817C268.105 252.566 268.609 253.259 269.078 253.98C269.313 254.336 269.547 254.695 269.761 255.067C270.027 255.526 269.737 256.454 269.164 257.038C268.643 257.569 267.674 257.731 267.35 257.252C266.232 255.592 265.148 253.898 264.069 252.207C263.499 251.313 263.327 250.309 263.489 249.233C263.555 248.794 263.682 248.363 263.72 247.921C263.896 245.903 262.506 244.323 260.815 244.771C258.828 245.299 256.886 245.582 254.881 244.875C253.894 244.53 253.07 244.971 252.397 245.848C251.062 247.594 249.209 248.525 247.439 249.543C246.363 250.161 245.193 250.402 243.934 250.04C242.254 249.553 240.532 249.243 238.845 248.787C237.672 248.467 236.665 247.911 235.785 246.838C234.764 245.599 233.039 245.613 232.207 246.776C230.596 249.026 228.478 250.075 226.028 250.54C225.632 250.616 225.224 250.671 224.848 250.82C222.899 251.6 220.912 251.534 218.904 251.189C218.11 251.051 217.317 250.93 216.523 250.796C211.535 249.95 207.491 247.259 204.279 242.998C203.075 241.403 201.947 239.802 200.153 238.891C199.08 238.346 198.152 237.422 197.196 236.611C196.899 236.359 196.713 235.931 196.503 235.565C196.437 235.451 196.399 235.203 196.454 235.141C196.634 234.954 196.851 234.744 197.075 234.699C197.32 234.654 197.624 234.72 197.845 234.854C200.908 236.721 203.731 238.954 206.197 241.724C206.756 242.352 207.322 243.039 207.998 243.463C209.513 244.416 211.027 245.472 212.67 246.041C216.893 247.507 221.181 248.863 225.58 246.71C225.701 246.652 225.839 246.61 225.97 246.6C227.85 246.452 229.175 245.244 230.348 243.753C230.7 243.305 231.027 242.832 231.4 242.404C231.893 241.845 233.032 241.638 233.656 242.031C234.584 242.618 235.516 243.215 236.378 243.908C236.934 244.354 237.486 244.719 238.148 244.899C239.58 245.282 240.998 245.751 242.444 246.048C244.976 246.565 247.205 245.837 249.03 243.764C249.496 243.232 249.923 242.659 250.379 242.118C250.651 241.79 250.907 241.424 251.231 241.172C252.501 240.192 253.86 239.695 255.374 240.486C257.22 241.452 259.011 241.169 260.777 240.216C261.274 239.951 261.533 239.416 261.526 238.785C261.516 237.822 261.164 237.063 260.498 236.476C259.194 235.331 257.658 234.847 256.044 234.647C255.661 234.599 255.209 234.654 254.878 234.847C253.342 235.738 251.738 235.389 250.148 235.262C249.226 235.186 248.34 234.699 247.253 235.017C245.652 236.835 243.755 237.387 241.588 235.896C240.708 235.289 239.794 235.375 238.904 235.848C236.682 237.035 234.339 237.415 231.89 237.432C229.93 237.442 228.223 236.863 226.632 235.607C225.328 234.578 223.989 233.571 222.575 232.753C220.187 231.376 217.721 230.358 214.905 230.897C213.329 231.2 211.962 230.393 211.124 228.906C210.424 227.66 209.885 226.276 209.444 224.886C208.813 222.895 207.843 221.132 206.798 219.403C206.473 218.868 205.918 218.685 205.38 218.796C203.803 219.113 202.23 219.448 200.674 219.862C198.321 220.483 196.165 219.855 194.077 218.71C193.122 218.185 192.183 217.612 191.321 217.112C189.547 217.295 188.174 218.189 186.818 219.172C186.104 219.689 185.276 219.576 184.497 219.244C184.248 219.137 184.014 218.986 183.786 218.83C179.104 215.708 176.254 210.922 174.046 205.56C173.939 205.301 173.888 204.973 173.915 204.69C174.05 203.344 174.322 202.051 175.216 201.029C176.461 199.608 177.893 198.552 179.694 198.262C180.884 198.069 182.082 197.934 183.279 197.837C183.989 197.779 184.535 197.517 184.976 196.868C186.822 194.145 186.832 194.156 189.972 195.498C190.758 195.115 191.593 194.656 192.466 194.301C193.587 193.845 193.743 193.041 193.48 191.847C193.37 191.34 193.605 190.692 193.805 190.164C194.005 189.632 194.36 189.173 194.622 188.725C194.222 187.341 193.788 186.092 193.508 184.802C193.066 182.776 193.539 180.958 194.826 179.446C195.375 178.805 196.002 178.228 196.648 177.704C197.624 176.907 198.518 176.092 199.09 174.826C199.501 173.919 200.184 173.139 200.819 172.38C202.623 170.234 205.49 170.382 207.108 172.701C208.005 173.988 208.837 175.326 209.627 176.531C211.214 176.896 212.642 177.224 214.07 177.555C214.481 177.838 214.892 178.125 215.309 178.411Z" fill="#B72831"/>
<path d="M91.9842 226.407C91.5426 228.315 91.7186 230.303 90.963 232.097C90.204 233.898 89.69 235.689 89.6037 237.673C89.5209 239.664 88.9655 241.627 88.8102 243.618C88.6688 245.45 88.7792 247.303 88.7792 249.149C89.0862 249.17 89.3898 249.191 89.6969 249.211C90.0833 241.551 91.6806 234.046 91.9842 226.407ZM117.321 164.101C115.276 167.745 112.433 170.785 110.173 174.253C105.843 180.888 102.017 187.665 100.399 195.508C100.299 195.998 99.8193 196.615 100.537 196.936C101.348 197.302 101.631 196.546 101.865 196.012C103.2 192.986 104.563 189.97 105.912 186.954C108.845 180.391 112.043 173.991 115.69 167.793C116.355 166.662 117.428 165.654 117.321 164.101ZM366.284 92.9453C371.024 97.7691 376.731 101.22 381.958 105.298C391.463 112.71 400.526 120.535 406.805 131.077C407.581 132.378 408.547 133.606 409.379 134.9C409.775 135.514 410.165 136.135 409.555 136.794C408.937 137.464 408.168 137.419 407.429 137.001C406.27 136.349 405.311 135.452 404.352 134.531C397.856 128.285 390.714 122.882 383.2 117.896C378.435 114.735 373.622 111.668 368.703 108.769C365.446 106.851 361.996 105.25 358.594 103.583C353.329 101.009 348.109 98.3177 342.724 96.0093C335.141 92.7624 327.599 89.4327 319.843 86.5481C313.467 84.1741 306.885 82.5524 300.354 81.6139C291.756 80.3786 282.934 79.5367 274.161 80.8306C273.602 80.9134 272.995 80.9617 272.732 81.4724C271.591 83.6945 269.593 83.7394 267.516 83.6221C258.173 83.0907 248.893 84.2949 239.671 85.2645C234.144 85.8442 228.499 86.8103 223.045 88.3423C217.114 90.0089 211.077 91.296 205.184 93.0695C201.496 94.1806 197.949 95.792 194.409 97.3447C189.528 99.4874 184.666 101.672 180.071 104.418C175.099 107.393 170.124 110.346 165.301 113.579C161.054 116.426 157.349 119.945 153.102 122.782C150.797 124.317 148.713 126.243 146.737 128.199C140.42 134.451 132.674 139.282 127.837 146.99C125.995 149.927 123.904 152.711 122.5 155.934C121.9 157.311 120.678 158.412 119.768 159.657C119.288 160.313 118.605 160.913 118.85 161.876C119.605 162.073 119.909 161.5 120.168 161.096C124.687 154.102 130.1 147.819 135.872 141.88C140.72 136.898 145.733 132.057 151.27 127.795C156.921 123.448 162.648 119.224 168.655 115.36C173.064 112.523 177.673 110.077 182.22 107.496C188.13 104.146 194.195 101.123 200.481 98.6076C204.908 96.8375 209.421 95.2606 214.02 93.9149C219.229 92.3898 224.584 91.5789 229.8 90.1469C232.298 89.4637 234.889 89.6984 237.425 89.4913C247.654 88.6529 257.928 88.7219 268.182 88.9807C274.288 89.1325 280.468 89.3878 286.446 90.4989C291.139 91.3684 295.844 92.3587 300.557 93.1075C307.164 94.1564 313.478 96.2854 319.867 98.0417C325.57 99.6117 330.962 102.303 336.493 104.494C342.91 107.037 349.13 110.074 354.975 113.676C360.823 117.278 367.309 119.797 372.684 124.186C373.522 124.869 374.754 124.842 375.513 125.735C376.041 126.356 376.576 126.988 376.179 127.809C375.668 128.862 374.785 128.278 374.164 127.985C371.114 126.532 368.047 125.1 365.09 123.468C359.267 120.249 353.422 117.085 347.392 114.245C342.641 112.009 338.097 109.346 333.226 107.33C325.994 104.339 318.625 101.685 311.052 99.8359C306.533 98.7318 301.992 97.2308 297.218 97.2757C305.329 99.9153 313.371 102.727 321.299 105.823C325.815 107.586 330.193 109.763 334.495 112.013C342.924 116.422 351.228 121.06 358.936 126.691C365.753 131.674 372.315 136.97 378.559 142.653C379.512 143.523 381.026 144.841 380.022 146.083C378.873 147.505 377.417 145.993 376.41 145.224C367.236 138.223 357.625 131.908 347.33 126.688C336.907 121.405 326.101 117.126 314.875 113.769C307.223 111.481 299.46 109.811 291.677 108.193C287.15 107.248 282.572 106.495 277.873 106.433C272.329 106.357 266.867 104.753 261.299 104.932C257.18 105.063 253.071 104.615 248.91 105.436C244.304 106.344 239.515 106.278 234.861 107.006C231.163 107.586 227.513 108.397 223.928 109.794C221.285 110.822 218.267 111.126 215.458 112.02C210.607 113.565 205.864 115.363 201.241 117.485C197.67 119.128 194.127 120.832 190.525 122.406C187.033 123.931 183.866 126.029 180.578 127.906C172.626 132.447 165.219 137.812 158.277 143.75C153.285 148.022 148.824 152.877 144.37 157.728C139.626 162.894 135.627 168.59 131.701 174.356C129.038 178.269 126.906 182.486 124.67 186.643C121.841 191.902 119.378 197.357 117.473 202.975C115.821 207.843 114.078 212.702 112.747 217.722C111.46 222.56 109.983 227.38 109.166 232.304C107.537 242.096 106.071 251.986 107.058 261.923C107.944 270.832 108.462 279.859 110.935 288.509C111.96 292.084 112.95 295.717 114.289 299.237C115.545 302.539 116.552 305.951 117.835 309.253C120.927 317.207 124.76 324.794 129.076 332.154C134.82 341.95 141.693 350.704 151.325 357.008C152.933 358.061 152.888 359.537 151.225 360.473C150.556 360.845 149.811 361.176 149.062 361.308C142.555 362.426 136.452 364.744 130.321 367.122C122.911 369.992 115.79 373.477 108.762 377.087C104.698 379.174 100.592 381.4 96.9006 384.222C93.8852 386.531 92.4017 386.058 90.1143 383.115C85.0876 376.662 81.2063 369.502 77.3871 362.35C74.9651 357.812 73.0745 352.944 71.0838 348.158C69.2691 343.8 67.8339 339.304 65.9433 334.984C64.9186 332.644 64.4114 330.112 63.7421 327.676C62.9245 324.705 61.7756 321.855 60.989 318.866C59.1156 311.755 57.1698 304.664 56.19 297.38C54.9928 288.495 53.0228 279.693 53.3747 270.622C53.599 264.794 53.423 258.952 53.4127 253.114C53.4023 247.445 54.0578 241.869 55.0307 236.269C55.9554 230.941 56.5143 225.534 57.6459 220.244C58.5325 216.097 59.8298 212.039 60.9855 207.957C62.6071 202.24 64.715 196.702 66.8368 191.157C68.6032 186.53 70.4973 181.982 72.5225 177.469C75.1273 171.675 78.1461 166.099 81.1994 160.544C85.5637 152.597 90.5318 145.027 95.8345 137.671C99.8711 132.07 104.246 126.753 108.8 121.567C112.685 117.144 116.807 112.969 121.047 108.89C128.272 101.944 136.128 95.7782 144.225 89.9019C152.005 84.257 160.319 79.4849 168.789 75.0027C173.219 72.6564 178.056 71.0864 182.517 68.7884C187.026 66.4662 191.849 64.9342 196.611 63.5229C206.578 60.5658 216.448 56.8876 227.05 56.7082C228.906 56.6771 230.193 55.2831 232.091 55.1658C239.27 54.7207 246.384 53.4406 253.602 53.4233C258.008 53.4095 262.427 53.2059 266.819 53.4613C276.928 54.0513 287.036 54.5102 297.021 56.653C301.585 57.6364 306.315 58.0263 310.931 58.9683C312.229 59.2339 313.505 59.472 314.72 59.9931C316.017 60.5486 317.324 60.9212 318.767 60.9143C321.513 60.8971 323.845 62.3187 326.188 63.447C331.901 66.2005 337.369 69.4992 343.186 71.9904C347.788 73.9607 352.298 76.1414 356.738 78.3877C360.088 80.0818 363.593 81.5207 366.788 83.6359C369.448 85.399 372.353 86.8759 375.151 88.4734C381.961 92.3622 388.24 96.9513 393.936 102.289C399.984 107.955 405.204 114.4 410.465 120.794C411.497 122.05 412.57 123.285 413.457 124.638C413.881 125.287 414.305 126.222 413.412 126.95C412.591 127.623 411.921 127.022 411.359 126.543C407.826 123.52 404.366 120.408 400.798 117.427C396.462 113.8 391.997 110.322 387.668 106.685C383.741 103.39 379.574 100.423 375.296 97.6414C372.467 95.8058 369.299 94.4911 366.284 92.9453Z" fill="#B72831"/>
<path d="M126.028 392.291C116.392 392.284 108.785 392.197 101.281 393.698C100.374 393.881 99.5044 394.247 98.604 394.478C97.9277 394.654 97.3378 394.433 97.0549 393.774C96.803 393.184 96.7651 392.556 97.3378 392.077C98.1106 391.428 98.8213 390.676 99.6735 390.162C106.101 386.304 112.363 382.112 119.059 378.796C124.21 376.242 129.527 373.92 135.092 372.147C139.397 370.773 143.751 369.755 148.143 369.014C152.37 368.299 156.734 368.42 161.033 368.12C164.196 367.896 167.322 368.368 170.462 368.496C177.81 368.803 184.548 371.239 191.276 373.751C197.279 375.994 203.172 378.492 208.906 381.422C215.395 384.731 221.919 387.998 228.481 391.155C232.987 393.326 237.472 395.6 241.94 397.825C245.455 399.578 249.316 400.641 252.587 402.891C253.028 403.194 253.542 403.412 254.049 403.601C258.804 405.385 263.485 407.418 268.343 408.856C273.363 410.34 278.303 412.069 283.447 413.252C289.095 414.553 294.708 416.051 300.449 416.817C305.348 417.476 310.296 417.779 315.191 418.559C319.97 419.322 324.8 418.97 329.613 419.063C334.915 419.163 340.08 418.021 345.31 417.521C350.485 417.027 355.543 415.902 360.684 415.299C361.526 415.202 362.405 415.119 363.185 414.812C368.795 412.611 374.794 411.81 380.463 409.636C386.856 407.186 393.242 404.799 399.473 401.938C402.284 400.651 405.165 399.588 407.67 397.718C408.412 397.163 409.323 397.025 409.999 397.773C410.713 398.564 410.647 399.557 409.944 400.313C403.871 406.831 397.958 413.497 391.041 419.187C386.007 423.331 380.649 426.985 375.081 430.332C371.779 432.316 368.16 433.759 364.782 435.563C359.569 438.351 353.873 439.38 348.346 440.905C343.996 442.105 339.338 442.516 334.801 442.637C327.67 442.827 320.497 443.199 313.394 442.212C307.812 441.439 302.154 441.377 296.637 439.89C292.473 438.769 288.122 438.351 283.868 437.551C280.456 436.906 277.203 435.66 273.818 434.852C267.612 433.376 261.433 431.606 255.454 429.39C249.513 427.189 243.465 425.27 237.582 422.907C230.061 419.888 222.488 416.986 215.005 413.873C208.236 411.061 201.391 408.453 194.567 405.792C187.86 403.18 181.012 400.934 174.112 399.157C166.611 397.232 158.976 395.641 151.286 394.316C142.171 392.746 133.122 392.484 126.028 392.291Z" fill="#B72831"/>
<path d="M255.622 458.587C249.102 458.497 242.543 459.056 236.071 458.073C229.733 457.11 223.312 456.879 217.023 455.333C213 454.346 208.798 453.86 204.751 452.89C199.576 451.648 194.474 450.033 189.447 448.27C186.901 447.376 184.32 446.538 181.77 445.672C177.53 444.236 173.314 442.663 169.267 440.865C165.114 439.023 160.915 437.218 156.816 435.203C146.359 430.069 136.392 424.117 126.645 417.806C118.524 412.547 110.975 406.464 103.451 400.377C102.971 399.987 102.426 399.539 102.609 398.831C102.809 398.076 103.471 397.706 104.189 397.644C111.734 396.982 119.197 395.698 126.884 396.478C132.493 397.047 138.217 397.123 143.723 398.176C150.61 399.49 157.475 401.05 164.258 402.975C170.961 404.877 177.592 407.016 184.072 409.449C188.743 411.201 193.514 412.768 198.193 414.479C204.32 416.719 210.44 419.068 216.664 421.104C221.156 422.571 225.852 423.782 230.012 426.19C231.734 427.184 233.68 427.381 235.491 427.995C240.083 429.548 244.675 431.169 249.167 432.929C254.511 435.024 260.056 436.387 265.493 438.063C269.126 439.181 272.852 440.358 276.774 440.606C279.607 440.786 282.184 442.421 285.093 442.587C290.499 442.894 295.743 444.395 301.232 444.361C306.324 444.326 311.451 444.564 316.533 445.189C317.754 445.341 318.668 445.748 318.851 447.031C319.069 448.553 317.806 448.801 316.792 449.071C308.581 451.248 300.438 453.618 292.107 455.416C280.028 458.021 267.898 458.825 255.622 458.587Z" fill="#B72831"/>
<path d="M328.145 414.234C324.257 414.234 320.366 414.186 316.477 414.244C310.088 414.344 303.847 413.264 297.575 412.243C293.3 411.549 289.001 410.98 284.785 410.031C279.886 408.927 274.89 407.816 270.281 406.022C265.382 404.114 260.373 402.312 255.667 399.814C248.577 396.05 241.318 392.61 234.104 389.08C232.99 388.538 232.224 387.945 232.689 386.626C233.169 385.274 234.311 385.295 235.412 385.574C239.759 386.682 244.05 388.048 248.439 388.928C256.15 390.474 263.723 392.592 271.471 394.035C278.32 395.308 285.237 396.019 292.061 397.333C294.973 397.892 297.92 397.537 300.862 397.944C313.193 399.649 325.62 399.583 338.04 399.449C342.474 399.404 346.8 398.631 351.154 397.927C354.297 397.42 357.405 396.888 360.386 395.753C367.183 393.169 373.076 389.18 377.55 383.504C379.413 381.14 378.954 377.607 377.947 374.967C376.76 371.865 374.766 368.984 371.64 367.148C367.849 364.923 363.733 365.164 360.01 368.204C357.492 370.261 354.835 372.162 352.627 374.588C351.871 375.416 351.109 376.489 349.698 375.961C348.349 375.457 347.963 374.156 347.68 373C345.686 364.854 349.032 356.107 355.977 351.649C358.161 350.248 360.541 349.016 363.301 348.971C363.822 348.964 364.426 348.823 364.84 348.53C368.239 346.111 372.203 345.949 376.115 345.769C380.141 345.586 383.76 347.056 386.789 349.592C389.636 351.973 392.189 354.623 393.793 358.167C395.018 360.879 394.6 363.684 394.869 366.393C395.197 369.691 396.657 372.431 397.723 375.388C398.765 378.276 400.783 380.874 400.617 384.121C400.272 390.795 397.643 396.353 392.406 400.635C387.597 404.572 381.752 406.229 376.025 408.064C372.368 409.238 368.677 410.321 364.854 411.018C352.706 413.226 340.562 415.197 328.145 414.234Z" fill="#B72831"/>
</svg>
