<svg width="53.344" height="27.648" viewBox="0 0 53.344 27.648" xmlns="http://www.w3.org/2000/svg"><g id="svgGroup" stroke-linecap="round" fill-rule="evenodd" font-size="9pt" stroke="#000" stroke-width="0.25mm" fill="none" style="stroke:#00adb5;stroke-width:0.25mm;fill:#00adb5"><path d="M 51.872 0.32 L 47.104 0.32 A 2.147 2.147 0 0 0 46.789 0.342 Q 46.629 0.365 46.501 0.416 A 0.802 0.802 0 0 0 46.224 0.592 Q 45.952 0.864 45.952 1.472 L 45.952 13.248 L 44.096 9.216 Q 43.87 8.736 43.519 8.505 A 1.258 1.258 0 0 0 43.424 8.448 A 1.781 1.781 0 0 0 42.944 8.277 Q 42.734 8.232 42.491 8.225 A 3.184 3.184 0 0 0 42.4 8.224 L 41.056 8.224 A 2.738 2.738 0 0 0 40.598 8.26 Q 40.34 8.304 40.128 8.4 A 1.587 1.587 0 0 0 40.032 8.448 A 1.372 1.372 0 0 0 39.615 8.801 Q 39.49 8.956 39.389 9.157 A 2.496 2.496 0 0 0 39.36 9.216 L 37.504 13.248 L 37.504 1.472 A 2.147 2.147 0 0 0 37.483 1.157 Q 37.459 0.997 37.408 0.869 A 0.802 0.802 0 0 0 37.232 0.592 Q 36.96 0.32 36.352 0.32 L 31.424 0.32 A 2.147 2.147 0 0 0 31.109 0.342 Q 30.949 0.365 30.821 0.416 A 0.802 0.802 0 0 0 30.544 0.592 Q 30.272 0.864 30.272 1.472 L 30.272 13.824 A 23.08 23.08 0 0 0 30.3 14.989 A 18.485 18.485 0 0 0 30.352 15.728 A 6.274 6.274 0 0 0 30.459 16.431 Q 30.588 17.052 30.848 17.792 L 32.448 22.208 A 1.914 1.914 0 0 0 32.694 22.723 A 1.668 1.668 0 0 0 32.976 23.04 A 1.296 1.296 0 0 0 33.852 23.36 A 1.664 1.664 0 0 0 33.856 23.36 L 38.08 23.36 A 1.815 1.815 0 0 0 38.484 23.317 A 1.335 1.335 0 0 0 38.944 23.12 A 1.13 1.13 0 0 0 39.34 22.638 A 1.553 1.553 0 0 0 39.424 22.4 L 40.928 17.184 A 1.681 1.681 0 0 1 40.982 17.029 Q 41.046 16.874 41.126 16.79 A 0.387 0.387 0 0 1 41.168 16.752 A 0.53 0.53 0 0 1 41.498 16.64 A 0.648 0.648 0 0 1 41.504 16.64 L 41.792 16.64 A 0.554 0.554 0 0 1 42.008 16.681 A 0.526 0.526 0 0 1 42.128 16.752 Q 42.272 16.864 42.368 17.184 L 43.84 22.4 A 1.29 1.29 0 0 0 43.988 22.762 A 1.025 1.025 0 0 0 44.384 23.136 Q 44.8 23.36 45.312 23.36 L 49.568 23.36 A 1.259 1.259 0 0 0 49.935 23.309 A 0.978 0.978 0 0 0 50.384 23.024 Q 50.688 22.688 50.848 22.208 L 52.448 17.856 Q 52.767 16.95 52.888 16.221 A 5.802 5.802 0 0 0 52.944 15.792 A 19.283 19.283 0 0 0 53.011 14.696 A 24.038 24.038 0 0 0 53.024 13.888 L 53.024 1.472 A 2.147 2.147 0 0 0 53.003 1.157 Q 52.979 0.997 52.928 0.869 A 0.802 0.802 0 0 0 52.752 0.592 Q 52.48 0.32 51.872 0.32 Z M 38.752 23.712 L 35.072 26.784 A 2.204 2.204 0 0 1 34.734 26.981 A 2.64 2.64 0 0 1 34.56 27.056 Q 34.272 27.168 33.952 27.168 L 29.728 27.168 Q 29.12 27.168 28.672 26.784 A 2.078 2.078 0 0 1 28.077 25.922 A 2.522 2.522 0 0 1 28.032 25.792 L 26.432 21.376 Q 26.089 20.47 25.962 19.722 A 5.496 5.496 0 0 1 25.904 19.28 A 20.776 20.776 0 0 1 25.836 18.115 A 25.716 25.716 0 0 1 25.824 17.312 L 25.824 4.96 A 2.578 2.578 0 0 1 25.841 4.655 Q 25.859 4.501 25.897 4.37 A 1.366 1.366 0 0 1 25.936 4.256 Q 26.048 3.968 26.272 3.776 L 30.4 0.288 Q 30.56 0.16 30.832 0.08 A 1.974 1.974 0 0 1 31.229 0.008 A 2.391 2.391 0 0 1 31.424 0 L 36.352 0 A 2.661 2.661 0 0 1 36.751 0.028 Q 36.959 0.06 37.125 0.127 A 1.039 1.039 0 0 1 37.472 0.352 Q 37.737 0.617 37.802 1.116 A 2.735 2.735 0 0 1 37.824 1.472 L 37.824 9.824 L 39.616 8.32 A 1.448 1.448 0 0 1 40.074 8.052 A 1.778 1.778 0 0 1 40.24 8 A 2.903 2.903 0 0 1 40.679 7.922 A 3.725 3.725 0 0 1 41.056 7.904 L 41.504 7.904 L 41.504 4.96 A 3.003 3.003 0 0 1 41.519 4.655 Q 41.542 4.432 41.6 4.256 Q 41.696 3.968 41.888 3.808 L 41.92 3.776 L 46.08 0.288 A 1.02 1.02 0 0 1 46.251 0.179 Q 46.336 0.135 46.438 0.099 A 1.838 1.838 0 0 1 46.496 0.08 A 1.643 1.643 0 0 1 46.752 0.023 Q 46.914 0 47.104 0 L 51.872 0 A 2.661 2.661 0 0 1 52.271 0.028 Q 52.479 0.06 52.645 0.127 A 1.039 1.039 0 0 1 52.992 0.352 Q 53.257 0.617 53.322 1.116 A 2.735 2.735 0 0 1 53.344 1.472 L 53.344 13.888 A 24.641 24.641 0 0 1 53.316 15.091 A 19.875 19.875 0 0 1 53.264 15.856 Q 53.202 16.565 52.917 17.438 A 11.667 11.667 0 0 1 52.736 17.952 L 51.136 22.304 Q 51.04 22.624 50.88 22.88 Q 50.72 23.136 50.496 23.36 L 46.368 26.784 A 1.418 1.418 0 0 1 46.117 26.986 A 1.214 1.214 0 0 1 45.952 27.072 A 1.171 1.171 0 0 1 45.651 27.154 A 1.528 1.528 0 0 1 45.44 27.168 L 41.184 27.168 Q 40.544 27.168 40.064 26.88 Q 39.584 26.592 39.392 25.984 L 38.752 23.712 Z M 41.28 12.32 L 42.08 12.32 A 1.394 1.394 0 0 1 42.434 12.363 A 0.998 0.998 0 0 1 42.896 12.624 Q 43.195 12.923 43.633 13.795 A 14.659 14.659 0 0 1 43.648 13.824 L 46.592 19.712 A 1.086 1.086 0 0 0 46.693 19.878 Q 46.755 19.961 46.828 20.015 A 0.48 0.48 0 0 0 46.992 20.096 A 1.892 1.892 0 0 0 47.311 20.153 A 1.628 1.628 0 0 0 47.456 20.16 L 47.616 20.16 A 0.639 0.639 0 0 0 47.96 20.057 A 0.911 0.911 0 0 0 48.096 19.952 Q 48.32 19.744 48.352 19.488 L 49.152 15.84 Q 49.28 15.232 49.296 14.272 Q 49.307 13.612 49.31 13.073 A 73.077 73.077 0 0 0 49.312 12.608 L 49.312 3.2 L 49.632 3.2 L 49.632 12.64 Q 49.632 13.124 49.624 13.729 A 138.253 138.253 0 0 1 49.616 14.304 Q 49.605 14.969 49.54 15.465 A 5.343 5.343 0 0 1 49.472 15.872 L 48.672 19.488 A 2.208 2.208 0 0 1 48.578 19.781 Q 48.515 19.937 48.433 20.057 A 0.994 0.994 0 0 1 48.272 20.24 Q 48 20.48 47.616 20.48 L 47.392 20.48 Q 47.104 20.48 46.8 20.368 A 0.81 0.81 0 0 1 46.384 20.022 A 1.077 1.077 0 0 1 46.336 19.936 L 43.392 13.984 Q 42.999 13.198 42.749 12.926 A 1.003 1.003 0 0 0 42.72 12.896 A 0.864 0.864 0 0 0 42.105 12.64 A 1.133 1.133 0 0 0 42.08 12.64 L 41.28 12.64 Q 40.896 12.64 40.64 12.896 Q 40.393 13.143 39.996 13.928 A 14.638 14.638 0 0 0 39.968 13.984 L 37.024 19.936 A 0.95 0.95 0 0 1 36.856 20.176 A 0.789 0.789 0 0 1 36.56 20.368 A 1.841 1.841 0 0 1 36.205 20.462 A 1.548 1.548 0 0 1 35.968 20.48 L 35.744 20.48 A 1.021 1.021 0 0 1 35.369 20.413 A 0.94 0.94 0 0 1 35.088 20.24 Q 34.875 20.052 34.75 19.697 A 2.351 2.351 0 0 1 34.688 19.488 L 33.888 15.872 Q 33.76 15.264 33.744 14.304 Q 33.733 13.644 33.73 13.105 A 73.077 73.077 0 0 1 33.728 12.64 L 33.728 3.2 L 34.048 3.2 L 34.048 12.608 Q 34.048 13.092 34.056 13.697 A 138.253 138.253 0 0 0 34.064 14.272 Q 34.075 14.937 34.14 15.433 A 5.343 5.343 0 0 0 34.208 15.84 L 35.008 19.488 A 0.697 0.697 0 0 0 35.147 19.823 A 0.97 0.97 0 0 0 35.264 19.952 A 0.872 0.872 0 0 0 35.44 20.081 A 0.628 0.628 0 0 0 35.744 20.16 L 35.904 20.16 A 1.727 1.727 0 0 0 36.245 20.125 A 2.036 2.036 0 0 0 36.368 20.096 Q 36.563 20.044 36.705 19.823 A 1.182 1.182 0 0 0 36.768 19.712 L 39.712 13.824 Q 40.16 12.928 40.464 12.624 A 1.016 1.016 0 0 1 41.008 12.344 A 1.465 1.465 0 0 1 41.28 12.32 Z M 23.104 17.312 L 23.104 1.472 A 2.147 2.147 0 0 0 23.083 1.157 Q 23.059 0.997 23.008 0.869 A 0.802 0.802 0 0 0 22.832 0.592 Q 22.56 0.32 21.952 0.32 L 16.928 0.32 A 2.147 2.147 0 0 0 16.613 0.342 Q 16.453 0.365 16.325 0.416 A 0.802 0.802 0 0 0 16.048 0.592 Q 15.776 0.864 15.776 1.472 L 15.776 16.032 A 1.836 1.836 0 0 1 15.703 16.561 A 1.486 1.486 0 0 1 15.408 17.104 Q 15.04 17.536 13.664 17.536 A 7.823 7.823 0 0 1 13.071 17.515 Q 12.17 17.447 11.838 17.149 A 0.681 0.681 0 0 1 11.792 17.104 A 1.491 1.491 0 0 1 11.396 16.153 A 1.957 1.957 0 0 1 11.392 16.032 L 11.392 12.128 A 2.147 2.147 0 0 0 11.371 11.813 Q 11.347 11.653 11.296 11.525 A 0.802 0.802 0 0 0 11.12 11.248 Q 10.848 10.976 10.24 10.976 L 5.6 10.976 A 2.147 2.147 0 0 0 5.285 10.998 Q 5.125 11.021 4.997 11.072 A 0.802 0.802 0 0 0 4.72 11.248 Q 4.448 11.52 4.448 12.128 L 4.448 17.312 A 9.369 9.369 0 0 0 4.568 18.841 A 7.456 7.456 0 0 0 4.848 19.984 A 4.384 4.384 0 0 0 6.208 21.965 A 5.255 5.255 0 0 0 6.288 22.032 A 5.66 5.66 0 0 0 7.324 22.693 Q 7.849 22.957 8.486 23.168 A 11.484 11.484 0 0 0 9.136 23.36 A 12.49 12.49 0 0 0 10.629 23.653 Q 11.394 23.758 12.279 23.804 A 27.883 27.883 0 0 0 13.728 23.84 A 27.415 27.415 0 0 0 15.547 23.783 Q 17.171 23.675 18.368 23.36 Q 20.192 22.88 21.232 22.032 A 4.63 4.63 0 0 0 22.405 20.631 A 4.433 4.433 0 0 0 22.688 19.984 A 7.495 7.495 0 0 0 23.05 18.335 A 9.457 9.457 0 0 0 23.104 17.312 Z M 0 19.84 L 0 15.616 A 2.6 2.6 0 0 1 0.021 15.279 Q 0.043 15.109 0.089 14.962 A 1.509 1.509 0 0 1 0.112 14.896 A 1.39 1.39 0 0 1 0.212 14.681 Q 0.28 14.563 0.366 14.478 A 0.794 0.794 0 0 1 0.416 14.432 L 4.576 10.944 A 1.02 1.02 0 0 1 4.747 10.835 Q 4.832 10.791 4.934 10.755 A 1.838 1.838 0 0 1 4.992 10.736 A 1.643 1.643 0 0 1 5.248 10.679 Q 5.41 10.656 5.6 10.656 L 10.24 10.656 Q 10.586 10.656 10.855 10.733 A 1.63 1.63 0 0 1 10.864 10.736 A 1.397 1.397 0 0 1 11.145 10.851 A 1.158 1.158 0 0 1 11.328 10.976 L 11.328 4.96 A 2.578 2.578 0 0 1 11.345 4.655 Q 11.363 4.501 11.401 4.37 A 1.366 1.366 0 0 1 11.44 4.256 Q 11.552 3.968 11.776 3.776 L 15.904 0.288 Q 16.064 0.16 16.336 0.08 A 1.974 1.974 0 0 1 16.733 0.008 A 2.391 2.391 0 0 1 16.928 0 L 21.952 0 A 2.661 2.661 0 0 1 22.351 0.028 Q 22.559 0.06 22.725 0.127 A 1.039 1.039 0 0 1 23.072 0.352 Q 23.337 0.617 23.402 1.116 A 2.735 2.735 0 0 1 23.424 1.472 L 23.424 17.312 A 9.149 9.149 0 0 1 23.264 19.056 A 7.687 7.687 0 0 1 22.992 20.08 Q 22.56 21.344 21.472 22.24 L 17.344 25.728 Q 16.447 26.467 15.029 26.944 A 11.824 11.824 0 0 1 14.4 27.136 Q 13.139 27.484 11.374 27.596 A 28.21 28.21 0 0 1 9.6 27.648 A 21.422 21.422 0 0 1 7.721 27.571 Q 6.778 27.487 5.977 27.315 A 9.669 9.669 0 0 1 4.816 26.992 A 9.732 9.732 0 0 1 3.433 26.391 Q 2.511 25.896 1.872 25.248 Q 0.8 24.16 0.4 22.752 Q 0 21.344 0 19.84 Z M 19.264 16.544 L 19.264 3.2 L 19.584 3.2 L 19.584 16.544 A 4.859 4.859 0 0 1 19.362 18.042 A 4.01 4.01 0 0 1 18.384 19.648 A 3.15 3.15 0 0 1 17.361 20.315 Q 16.36 20.741 14.764 20.836 A 16.307 16.307 0 0 1 13.792 20.864 A 16.551 16.551 0 0 1 12.585 20.823 Q 12.02 20.781 11.536 20.698 A 7.403 7.403 0 0 1 10.832 20.544 Q 9.664 20.224 8.992 19.664 Q 8.32 19.104 8.048 18.304 Q 7.776 17.504 7.776 16.544 L 7.776 14.016 L 8.096 14.016 L 8.096 16.544 A 4.482 4.482 0 0 0 8.279 17.857 A 3.501 3.501 0 0 0 9.296 19.456 A 3.172 3.172 0 0 0 10.251 20.03 Q 11.21 20.417 12.731 20.513 A 16.913 16.913 0 0 0 13.792 20.544 A 14.239 14.239 0 0 0 15.24 20.476 Q 16.69 20.327 17.545 19.852 A 2.735 2.735 0 0 0 18.112 19.44 A 3.687 3.687 0 0 0 19.233 17.114 A 5.09 5.09 0 0 0 19.264 16.544 Z" vector-effect="non-scaling-stroke"/></g></svg>